<?xml version="1.0" standalone="no"?>
<!DOCTYPE svg PUBLIC "-//W3C//DTD SVG 20010904//EN"
 "http://www.w3.org/TR/2001/REC-SVG-20010904/DTD/svg10.dtd">
<svg version="1.0" xmlns="http://www.w3.org/2000/svg"
 width="240.000000pt" height="240.000000pt" viewBox="0 0 240.000000 240.000000"
 preserveAspectRatio="xMidYMid meet">
<metadata>
Created by potrace 1.14, written by Peter Selinger 2001-2017
</metadata>
<g transform="translate(0.000000,240.000000) scale(0.100000,-0.100000)"
fill="#000000" stroke="none">
<path d="M152 2390 c-48 -11 -98 -50 -123 -94 -18 -32 -23 -61 -27 -140 -7
-151 -3 -154 52 -50 45 85 64 109 158 199 20 19 46 48 58 65 l21 30 -53 -1
c-29 -1 -68 -5 -86 -9z"/>
<path d="M729 2053 c-12 -14 -12 -16 0 -8 11 6 13 3 9 -13 -4 -13 -1 -22 8
-24 11 -2 9 -7 -7 -16 -11 -8 -18 -9 -14 -3 3 6 1 11 -4 11 -6 0 -11 -7 -11
-15 0 -8 -4 -16 -10 -16 -5 -1 -14 -3 -20 -4 -5 -1 -14 -3 -19 -4 -13 -2 -4
-83 11 -92 9 -6 22 2 41 24 20 22 25 25 17 9 -6 -12 -8 -26 -5 -31 3 -5 -6
-31 -20 -57 -14 -26 -25 -41 -25 -33 0 11 -2 12 -9 1 -4 -8 -12 -13 -17 -12
-12 1 -26 -54 -29 -113 -2 -53 -14 -67 -58 -67 -41 0 -60 -50 -47 -121 11 -55
57 -154 97 -207 17 -23 26 -49 29 -90 2 -35 10 -61 19 -68 8 -6 15 -17 15 -23
0 -7 4 -10 9 -7 9 6 24 -30 22 -51 -3 -23 20 -93 29 -93 6 0 10 -7 10 -15 0
-8 5 -15 10 -15 6 0 10 -18 10 -39 0 -33 -5 -43 -32 -62 -18 -13 -50 -38 -71
-56 -21 -19 -54 -41 -73 -50 -49 -24 -94 -104 -94 -169 0 -58 -21 -94 -54 -94
-38 0 -50 23 -36 65 7 20 9 39 6 42 -3 3 -35 2 -72 -2 -79 -8 -115 -36 -133
-102 -15 -57 -31 -67 -73 -50 -41 17 -49 28 -78 102 -13 33 -27 65 -32 71 -11
15 -13 70 -4 124 5 34 3 50 -8 65 -14 18 -15 -17 -16 -362 l0 -383 1200 0
1200 0 0 383 0 382 -19 -42 c-11 -22 -25 -67 -31 -98 -10 -50 -10 -63 5 -96
23 -51 14 -82 -30 -104 -20 -9 -59 -40 -88 -68 -35 -35 -65 -56 -92 -62 -43
-11 -42 -10 -28 -83 5 -28 1 -38 -25 -65 -17 -18 -36 -47 -43 -65 -6 -17 -17
-32 -25 -32 -27 0 -36 40 -30 139 12 195 18 412 12 436 -9 36 -46 34 -47 -2
-3 -57 3 -118 13 -130 17 -21 1 -43 -30 -43 -37 0 -54 -17 -41 -42 5 -10 18
-18 27 -18 37 0 56 -46 28 -69 -18 -15 -85 -5 -114 18 -23 17 -23 17 -6 81 9
36 27 99 40 140 22 67 29 114 37 279 2 33 -2 37 -58 69 -108 61 -144 51 -105
-31 11 -22 20 -55 21 -71 l1 -31 8 31 c14 60 19 68 35 54 17 -14 14 -45 -12
-140 -24 -85 -51 -140 -78 -162 -14 -11 -25 -25 -25 -33 0 -13 -20 -41 -72
-96 -16 -16 -28 -38 -28 -49 0 -10 -13 -28 -29 -40 l-30 -21 17 -45 c17 -46
17 -47 -5 -61 -13 -9 -23 -24 -23 -34 0 -11 -7 -19 -16 -19 -13 0 -15 6 -9 27
11 38 10 52 -6 90 -13 32 -2 95 70 414 13 54 15 82 7 98 -7 15 -6 25 1 29 19
12 26 54 12 64 -11 8 -10 9 4 4 21 -7 24 22 2 30 -8 4 -15 13 -15 21 0 13 3
13 15 3 12 -10 15 -10 15 0 0 7 -8 18 -17 25 -15 11 -19 9 -30 -12 -7 -14 -13
-34 -13 -45 0 -10 -3 -17 -7 -15 -5 3 -9 -12 -11 -33 -1 -21 2 -41 6 -44 11
-7 4 -54 -9 -62 -5 -3 -9 -14 -9 -25 0 -11 -4 -17 -10 -14 -5 3 -10 -1 -10 -9
0 -9 -6 -13 -14 -10 -8 3 -23 -3 -34 -14 -11 -11 -23 -18 -26 -15 -3 4 -6 0
-6 -7 0 -7 -3 -10 -7 -7 -3 4 -12 2 -20 -4 -10 -9 -18 -8 -31 4 -13 12 -21 13
-37 4 -29 -17 -55 -19 -56 -4 0 6 -4 3 -9 -8 -7 -16 -9 -17 -9 -3 -1 9 -6 20
-13 24 -7 5 -8 2 -3 -7 5 -9 1 -8 -10 3 -13 12 -24 14 -42 7 -22 -8 -23 -7
-12 14 11 20 11 21 -4 8 -15 -12 -17 -11 -17 2 0 9 -6 20 -14 24 -29 16 -19
84 12 81 35 -3 53 2 47 13 -5 6 10 9 44 8 28 -2 54 0 57 4 9 9 -21 37 -39 37
-9 0 -18 6 -20 13 -4 9 -6 9 -6 -1 -1 -8 -6 -10 -13 -5 -7 4 -20 8 -28 8 -8 0
-16 10 -18 21 -3 19 3 23 45 29 26 4 76 8 110 10 60 2 64 1 105 -36 36 -32 44
-36 52 -22 5 9 4 18 -1 22 -6 3 -13 16 -17 29 -4 12 -15 22 -25 22 -10 0 -21
3 -25 7 -4 4 -31 8 -59 9 -29 1 -52 3 -52 4 0 1 -18 4 -40 6 -22 3 -45 5 -51
6 -8 1 -9 11 -2 32 5 17 8 51 7 76 0 25 0 50 0 57 2 21 32 43 60 43 26 0 51
16 51 32 0 15 -73 8 -92 -9 -17 -15 -19 -14 -42 10 -14 15 -29 27 -34 27 -27
0 -44 160 -23 222 13 39 21 178 10 178 -4 0 -5 10 -1 22 3 14 1 19 -6 14 -6
-3 -12 2 -15 11 -3 14 -7 11 -16 -12 l-13 -30 -18 23 c-10 12 -23 22 -29 22
-6 0 -28 9 -48 20 -21 11 -33 20 -28 20 6 0 -5 9 -22 20 -43 26 -42 46 5 58
21 6 28 11 17 11 -11 1 -31 8 -45 16 l-25 14 25 1 c20 0 22 2 10 10 -13 9 -11
13 10 29 23 18 23 20 7 27 -10 3 -16 13 -13 20 3 9 -2 14 -14 14 -10 0 -22 5
-26 11 -3 6 -17 8 -31 5 -35 -9 -45 1 -27 29 14 22 14 24 -5 34 -11 6 -38 11
-61 11 -25 0 -39 4 -35 10 10 16 -1 11 -16 -7z m36 -233 c3 -5 1 -10 -4 -10
-6 0 -11 5 -11 10 0 6 2 10 4 10 3 0 8 -4 11 -10z m199 -121 c4 -4 -11 -6 -35
-5 -24 2 -43 6 -41 9 1 4 2 11 2 16 0 10 58 -5 74 -20z m59 -210 c-5 -5 -27
-12 -49 -14 -21 -2 -30 -2 -19 1 11 3 23 9 27 13 12 11 52 11 41 0z m7 -24 c0
-9 -79 -45 -97 -44 -10 0 5 11 32 24 52 24 65 28 65 20z m10 -18 c0 -2 -12
-14 -27 -28 l-28 -24 24 28 c23 25 31 32 31 24z m33 -22 c-10 -13 -22 -25 -27
-25 -5 0 1 11 14 25 30 32 36 32 13 0z m-208 -68 c13 -3 9 -5 -12 -6 -24 -1
-33 3 -33 15 0 12 3 14 13 6 6 -5 21 -12 32 -15z m95 -41 c0 -24 -3 -27 -10
-16 -8 12 -10 13 -10 1 0 -17 -29 -51 -43 -51 -5 0 -6 8 -3 17 6 16 6 16 -12
0 -23 -21 -39 -23 -23 -3 9 11 9 16 0 22 -8 5 -9 3 -4 -6 5 -9 4 -11 -4 -6 -9
6 -9 11 -1 21 8 10 7 14 -7 17 -31 7 54 45 88 40 25 -4 29 -9 29 -36z m110
-25 c0 -6 -4 -13 -10 -16 -5 -3 -10 1 -10 9 0 9 5 16 10 16 6 0 10 -4 10 -9z
m-47 -200 c-3 -11 -14 -28 -25 -38 -21 -18 -21 -18 -8 7 13 26 30 50 35 50 2
0 1 -9 -2 -19z m146 -60 c12 -59 9 -70 -14 -51 -8 7 -15 10 -15 7 0 -3 -13 -2
-30 3 -24 7 -30 6 -30 -7 0 -24 -25 -9 -28 18 -2 19 -1 21 7 9 8 -12 11 -7 11
20 1 33 1 34 15 16 14 -18 15 -19 15 -2 0 12 5 16 14 13 9 -4 16 3 21 20 8 35
21 19 34 -46z m-160 -43 c-9 -16 -14 -19 -17 -9 -2 7 2 17 9 22 20 13 21 11 8
-13z m151 -88 c0 -5 -5 -10 -11 -10 -5 0 -7 5 -4 10 3 6 8 10 11 10 2 0 4 -4
4 -10z m94 -625 c-4 -9 -14 -20 -24 -25 -27 -14 -32 12 -6 27 28 17 36 16 30
-2z"/>
<path d="M666 1851 c-4 -6 -5 -11 -2 -11 3 0 1 -11 -4 -25 -7 -19 -6 -23 4
-19 8 3 17 15 20 27 6 24 -8 45 -18 28z"/>
<path d="M1220 1659 c0 -17 7 -37 15 -45 8 -9 17 -27 21 -42 10 -50 19 -57 70
-59 27 0 58 -4 68 -9 14 -5 17 -4 12 4 -4 7 -2 12 4 12 7 0 10 7 6 15 -4 12
-2 13 13 5 14 -7 21 -6 23 2 3 7 12 4 26 -10 13 -13 19 -28 15 -39 -5 -12 -1
-11 15 5 14 14 19 28 15 39 -6 17 -5 17 14 1 26 -24 33 -23 33 5 0 25 -30 56
-79 82 -20 10 -28 20 -25 30 4 8 1 15 -6 15 -6 0 -8 -4 -5 -10 4 -6 -6 -10
-22 -10 -22 0 -25 2 -13 10 8 5 11 10 5 11 -33 4 -42 3 -57 -10 -15 -12 -21
-11 -42 3 -19 12 -24 13 -20 2 7 -18 -48 -9 -59 10 -14 24 -27 15 -27 -17z
m255 -49 c3 -6 -1 -7 -9 -4 -18 7 -21 14 -7 14 6 0 13 -4 16 -10z"/>
<path d="M1736 1675 c-3 -9 0 -15 9 -15 16 0 20 16 6 24 -5 3 -11 -1 -15 -9z"/>
<path d="M1721 1638 c3 -24 -1 -39 -8 -35 -5 3 -8 -5 -8 -17 0 -13 5 -23 12
-23 6 0 9 6 6 14 -3 7 1 20 8 29 19 23 20 44 3 44 -8 0 -14 -6 -13 -12z"/>
<path d="M1705 1480 c-3 -5 -1 -10 4 -10 6 0 11 5 11 10 0 6 -2 10 -4 10 -3 0
-8 -4 -11 -10z"/>
<path d="M1749 1457 c6 -7 9 -28 6 -46 -3 -23 0 -31 9 -28 9 4 12 -8 12 -41
-1 -35 3 -47 15 -50 21 -4 71 104 62 136 -6 25 -40 37 -72 27 -12 -4 -21 -2
-21 4 0 6 -5 11 -11 11 -8 0 -8 -4 0 -13z"/>
<path d="M1385 1410 c-4 -6 9 -10 31 -10 42 0 42 4 2 14 -15 3 -30 2 -33 -4z"/>
<path d="M1645 1325 c-10 -13 -22 -22 -26 -20 -7 5 -29 -39 -29 -58 0 -7 -11
-25 -25 -41 -24 -28 -36 -74 -16 -62 5 4 12 0 15 -6 3 -7 4 -4 3 7 -1 11 4 20
11 20 7 0 22 11 33 25 l20 25 -7 -25 c-3 -14 -10 -29 -14 -35 -12 -15 0 -63
19 -77 13 -10 14 -10 4 1 -9 10 -5 23 15 57 25 41 27 43 34 22 3 -13 6 15 7
62 0 58 -2 80 -9 70 -8 -13 -10 -12 -11 5 -1 11 -2 28 -1 38 2 21 1 21 -23 -8z
m22 -77 c-3 -8 -6 -5 -6 6 -1 11 2 17 5 13 3 -3 4 -12 1 -19z"/>
<path d="M1307 1318 c11 -13 24 -34 28 -48 4 -14 37 -60 73 -103 47 -57 67
-75 73 -65 5 7 6 21 3 31 -4 12 0 17 13 18 11 0 7 5 -12 11 -33 13 -50 28
-124 116 -29 34 -58 62 -64 62 -6 0 -1 -10 10 -22z"/>
<path d="M1606 1067 c3 -10 9 -15 12 -12 3 3 0 11 -7 18 -10 9 -11 8 -5 -6z"/>
<path d="M1653 990 c6 -11 15 -20 19 -20 12 0 -3 28 -18 34 -11 4 -12 2 -1
-14z"/>
<path d="M1600 992 c0 -5 10 -17 22 -28 l21 -19 -18 28 c-18 28 -25 33 -25 19z"/>
<path d="M1650 950 c0 -5 5 -10 11 -10 5 0 7 5 4 10 -3 6 -8 10 -11 10 -2 0
-4 -4 -4 -10z"/>
<path d="M1670 867 c-16 -96 -10 -127 15 -72 25 55 33 145 13 145 -11 0 -19
-21 -28 -73z"/>
<path d="M1191 704 c0 -11 3 -14 6 -6 3 7 2 16 -1 19 -3 4 -6 -2 -5 -13z"/>
<path d="M1747 674 c-4 -4 -7 -14 -7 -23 0 -11 3 -12 11 -4 6 6 10 16 7 23 -2
6 -7 8 -11 4z"/>
</g>
</svg>
